<svg width="1334" height="1024" viewBox="0 0 1334 1024" fill="none" xmlns="http://www.w3.org/2000/svg">
<g opacity="0.4" filter="url(#filter0_f_2_651)">
<mask id="mask0_2_651" style="mask-type:alpha" maskUnits="userSpaceOnUse" x="199" y="0" width="936" height="978">
<rect x="199" width="936" height="978" rx="30" fill="#D9D9D9"/>
</mask>
<g mask="url(#mask0_2_651)">
<rect x="199" width="234.225" height="489.001" fill="#763CFF"/>
<mask id="mask1_2_651" style="mask-type:alpha" maskUnits="userSpaceOnUse" x="199" y="0" width="235" height="490">
<rect x="199" width="234.225" height="489.001" fill="#4A4A4A"/>
</mask>
<g mask="url(#mask1_2_651)">
<ellipse cx="199" cy="244.501" rx="117.113" ry="244.501" fill="#FFAEE2"/>
<ellipse cx="433.225" cy="244.501" rx="117.113" ry="244.501" fill="#272531"/>
<rect width="271.101" height="271.101" transform="matrix(0.431988 -0.901879 0.431988 0.901879 81.8854 244.501)" fill="#272531"/>
<rect width="271.106" height="271.101" transform="matrix(0.431988 -0.901879 0.431988 0.901879 316.113 244.503)" fill="#FFAEE2"/>
</g>
<rect x="900.775" y="978.002" width="489.001" height="234.225" transform="rotate(-90 900.775 978.002)" fill="#FFAEE2"/>
<mask id="mask2_2_651" style="mask-type:alpha" maskUnits="userSpaceOnUse" x="900" y="488" width="236" height="490">
<rect x="900.901" y="977.51" width="489.001" height="234.225" transform="rotate(-90 900.901 977.51)" fill="#4A4A4A"/>
</mask>
<g mask="url(#mask2_2_651)">
<rect width="271.101" height="271.101" transform="matrix(-0.431988 -0.901879 0.431988 -0.901879 1017.95 1222.26)" fill="url(#paint0_linear_2_651)"/>
<rect width="271.101" height="271.101" transform="matrix(-0.431988 -0.901879 0.431988 -0.901879 1017.95 733.254)" fill="url(#paint1_linear_2_651)"/>
</g>
<rect x="433.225" y="978.002" width="489.001" height="234.225" transform="rotate(-90 433.225 978.002)" fill="#763CFF"/>
<mask id="mask3_2_651" style="mask-type:alpha" maskUnits="userSpaceOnUse" x="433" y="489" width="235" height="490">
<rect x="433.225" y="978.002" width="489.001" height="234.225" transform="rotate(-90 433.225 978.002)" fill="#4A4A4A"/>
</mask>
<g mask="url(#mask3_2_651)">
<path d="M433.225 1224.38L316.113 979.883L433.225 735.382L550.338 979.883L433.225 1224.38Z" fill="#FF4181"/>
<rect width="271.101" height="271.101" transform="matrix(-0.431988 -0.901879 0.431988 -0.901879 550.338 1224.38)" fill="#272531"/>
<rect width="271.101" height="271.101" transform="matrix(-0.431988 -0.901879 0.431988 -0.901879 667.45 1224.38)" fill="#FFA100"/>
</g>
<rect x="433.225" width="234.225" height="489.001" fill="#FF4181"/>
<mask id="mask4_2_651" style="mask-type:alpha" maskUnits="userSpaceOnUse" x="433" y="0" width="235" height="490">
<rect x="433.225" width="234.225" height="489.001" fill="#4A4A4A"/>
</mask>
<g mask="url(#mask4_2_651)">
<ellipse cx="433.225" cy="244.501" rx="117.113" ry="244.501" fill="#674C4C"/>
<ellipse cx="667.45" cy="244.501" rx="117.113" ry="244.501" fill="#BD8686"/>
<ellipse cx="433.225" cy="244.501" rx="117.113" ry="244.501" fill="url(#paint2_linear_2_651)"/>
<path d="M784.563 244.501C784.563 379.535 732.13 489.001 667.45 489.001C602.771 489.001 550.338 379.535 550.338 244.501C550.338 109.467 602.771 0 667.45 0C732.13 0 784.563 109.467 784.563 244.501Z" fill="#FFAEE2"/>
</g>
<rect x="900.775" width="234.225" height="489.001" fill="#272531"/>
<mask id="mask5_2_651" style="mask-type:alpha" maskUnits="userSpaceOnUse" x="900" y="0" width="235" height="490">
<rect x="900.775" width="234.225" height="489.001" fill="#4A4A4A"/>
</mask>
<g mask="url(#mask5_2_651)">
<path d="M1017.89 489.001C1017.89 624.035 965.454 733.502 900.775 733.502C836.095 733.502 783.662 624.035 783.662 489.001C783.662 353.967 836.095 244.501 900.775 244.501C965.454 244.501 1017.89 353.967 1017.89 489.001Z" fill="#FF4181"/>
<path d="M1252.11 6.10352e-05C1252.11 135.034 1199.68 244.501 1135 244.501C1070.32 244.501 1017.89 135.034 1017.89 6.10352e-05C1017.89 -135.034 1070.32 -244.501 1135 -244.501C1199.68 -244.501 1252.11 -135.034 1252.11 6.10352e-05Z" fill="#FFA100"/>
</g>
<rect x="667.45" y="489.001" width="234.225" height="489.001" fill="#272531"/>
<path d="M690.873 733.502C690.873 625.475 732.819 537.901 784.563 537.901C836.307 537.901 878.253 625.475 878.253 733.502C878.253 841.529 836.307 929.102 784.563 929.102C732.819 929.102 690.873 841.529 690.873 733.502Z" fill="url(#paint3_linear_2_651)"/>
<rect x="199" y="489.001" width="234.225" height="489.001" fill="#FFA100"/>
<path d="M199 489.001L316.113 978.002H199V489.001Z" fill="url(#paint4_linear_2_651)"/>
<path d="M316.113 489.001L433.225 978.002H316.113V489.001Z" fill="url(#paint5_linear_2_651)"/>
<rect x="667.45" width="234.225" height="489.001" fill="#763CFF"/>
<path d="M667 0L901.225 489.001H667V0Z" fill="url(#paint6_linear_2_651)"/>
<mask id="mask6_2_651" style="mask-type:alpha" maskUnits="userSpaceOnUse" x="667" y="0" width="235" height="490">
<rect x="667.45" width="234.225" height="489.001" fill="#4A4A4A"/>
</mask>
<g mask="url(#mask6_2_651)">
<path d="M1018.79 489.001C1018.79 624.035 966.355 733.502 901.676 733.502C836.996 733.502 784.563 624.035 784.563 489.001C784.563 353.967 836.996 244.501 901.676 244.501C966.355 244.501 1018.79 353.967 1018.79 489.001Z" fill="#FFA100"/>
</g>
</g>
</g>
<defs>
<filter id="filter0_f_2_651" x="0" y="-199" width="1334" height="1376" filterUnits="userSpaceOnUse" color-interpolation-filters="sRGB">
<feFlood flood-opacity="0" result="BackgroundImageFix"/>
<feBlend mode="normal" in="SourceGraphic" in2="BackgroundImageFix" result="shape"/>
<feGaussianBlur stdDeviation="99.5" result="effect1_foregroundBlur_2_651"/>
</filter>
<linearGradient id="paint0_linear_2_651" x1="135.551" y1="0" x2="135.551" y2="271.101" gradientUnits="userSpaceOnUse">
<stop stop-color="#9755FF"/>
<stop offset="1" stop-color="#F89FE8"/>
</linearGradient>
<linearGradient id="paint1_linear_2_651" x1="135.551" y1="0" x2="135.551" y2="271.101" gradientUnits="userSpaceOnUse">
<stop stop-color="#F89FE8"/>
<stop offset="1" stop-color="#8547FF"/>
</linearGradient>
<linearGradient id="paint2_linear_2_651" x1="433.225" y1="0" x2="433.225" y2="489.001" gradientUnits="userSpaceOnUse">
<stop stop-color="#FF4280"/>
<stop offset="1" stop-color="#FF9C00"/>
</linearGradient>
<linearGradient id="paint3_linear_2_651" x1="784.563" y1="929.102" x2="784.563" y2="537.901" gradientUnits="userSpaceOnUse">
<stop stop-color="#FF4280"/>
<stop offset="1" stop-color="#FF9C00"/>
</linearGradient>
<linearGradient id="paint4_linear_2_651" x1="257.556" y1="489.001" x2="257.556" y2="978.002" gradientUnits="userSpaceOnUse">
<stop stop-color="#FF4280"/>
<stop offset="1" stop-color="#FF9C00"/>
</linearGradient>
<linearGradient id="paint5_linear_2_651" x1="374.669" y1="489.001" x2="374.669" y2="978.002" gradientUnits="userSpaceOnUse">
<stop stop-color="#FF4280"/>
<stop offset="1" stop-color="#FF9C00"/>
</linearGradient>
<linearGradient id="paint6_linear_2_651" x1="667" y1="256.967" x2="894.448" y2="256.967" gradientUnits="userSpaceOnUse">
<stop stop-color="#763CFF"/>
<stop offset="0.601151" stop-color="#CE7DF2"/>
</linearGradient>
</defs>
</svg>
