<svg width="371" height="364" viewBox="0 0 371 364" fill="none" xmlns="http://www.w3.org/2000/svg">
<g filter="url(#filter0_d_2_24)">
<path d="M358 177.887C358 273.371 278.978 350.775 181.5 350.775C84.0217 350.775 5 273.371 5 177.887C5 82.4043 84.0217 5 181.5 5C278.978 5 358 82.4043 358 177.887Z" fill="white"/>
</g>
<path d="M336.323 179.248C336.323 263.495 266.6 331.791 180.592 331.791C94.5845 331.791 24.8614 263.495 24.8614 179.248C24.8614 95.0003 94.5845 26.7042 180.592 26.7042C266.6 26.7042 336.323 95.0003 336.323 179.248Z" fill="#9A0F0F"/>
<path d="M158.961 115.482L155.763 111.884V111.884L158.961 115.482ZM202.196 115.482L205.394 111.884L202.196 115.482ZM200.811 114.251L197.612 117.85L200.811 114.251ZM160.346 114.251L163.545 117.85L163.545 117.85L160.346 114.251ZM129.618 231.358L132.448 227.463L129.618 231.358ZM122.517 224.257L126.412 221.428L122.517 224.257ZM238.64 224.257L234.745 221.428L238.64 224.257ZM231.539 231.358L228.71 227.463L231.539 231.358ZM239.955 147.523V179.716H249.584V147.523H239.955ZM186.998 232.673H174.159V242.302H186.998V232.673ZM121.202 179.716V147.523H111.573V179.716H121.202ZM197.612 117.85L198.997 119.081L205.394 111.884L204.009 110.653L197.612 117.85ZM162.16 119.081L163.545 117.85L157.148 110.653L155.763 111.884L162.16 119.081ZM141.967 126.758C149.411 126.758 156.596 124.026 162.16 119.081L155.763 111.884C151.962 115.263 147.053 117.129 141.967 117.129V126.758ZM198.997 119.081C204.561 124.026 211.746 126.758 219.19 126.758V117.129C214.104 117.129 209.195 115.263 205.394 111.884L198.997 119.081ZM204.009 110.653C190.647 98.7754 170.51 98.7754 157.148 110.653L163.545 117.85C173.259 109.215 187.898 109.215 197.612 117.85L204.009 110.653ZM174.159 232.673C162.017 232.673 153.297 232.667 146.545 231.935C139.882 231.213 135.708 229.832 132.448 227.463L126.788 235.253C131.964 239.013 138.026 240.697 145.508 241.508C152.899 242.309 162.232 242.302 174.159 242.302V232.673ZM111.573 179.716C111.573 191.643 111.567 200.976 112.367 208.368C113.178 215.849 114.862 221.911 118.622 227.087L126.412 221.428C124.043 218.167 122.662 213.993 121.94 207.33C121.208 200.578 121.202 191.858 121.202 179.716H111.573ZM132.448 227.463C130.132 225.78 128.095 223.744 126.412 221.428L118.622 227.087C120.899 230.221 123.654 232.976 126.788 235.253L132.448 227.463ZM239.955 179.716C239.955 191.858 239.949 200.578 239.217 207.33C238.495 213.993 237.114 218.167 234.745 221.428L242.535 227.087C246.295 221.911 247.979 215.849 248.79 208.368C249.591 200.976 249.584 191.643 249.584 179.716H239.955ZM186.998 242.302C198.925 242.302 208.258 242.309 215.65 241.508C223.131 240.697 229.193 239.013 234.369 235.253L228.71 227.463C225.449 229.832 221.275 231.213 214.612 231.935C207.86 232.667 199.14 232.673 186.998 232.673V242.302ZM234.745 221.428C233.062 223.744 231.026 225.78 228.71 227.463L234.369 235.253C237.503 232.976 240.258 230.221 242.535 227.087L234.745 221.428ZM249.584 147.523C249.584 130.737 235.976 117.129 219.19 117.129V126.758C230.658 126.758 239.955 136.055 239.955 147.523H249.584ZM121.202 147.523C121.202 136.055 130.499 126.758 141.967 126.758V117.129C125.181 117.129 111.573 130.737 111.573 147.523H121.202ZM150.088 179.716C150.088 196.555 163.739 210.206 180.579 210.206V200.578C169.057 200.578 159.716 191.238 159.716 179.716H150.088ZM180.579 210.206C197.418 210.206 211.069 196.555 211.069 179.716H201.441C201.441 191.238 192.1 200.578 180.579 200.578V210.206ZM211.069 179.716C211.069 162.876 197.418 149.225 180.579 149.225V158.854C192.1 158.854 201.441 168.194 201.441 179.716H211.069ZM180.579 149.225C163.739 149.225 150.088 162.876 150.088 179.716H159.716C159.716 168.194 169.057 158.854 180.579 158.854V149.225Z" fill="white"/>
<path d="M212.674 147.62C212.674 151.166 215.548 154.04 219.093 154.04C222.638 154.04 225.512 151.166 225.512 147.62C225.512 144.075 222.638 141.201 219.093 141.201C215.548 141.201 212.674 144.075 212.674 147.62Z" fill="white"/>
<defs>
<filter id="filter0_d_2_24" x="0.904873" y="0.904873" width="369.381" height="362.155" filterUnits="userSpaceOnUse" color-interpolation-filters="sRGB">
<feFlood flood-opacity="0" result="BackgroundImageFix"/>
<feColorMatrix in="SourceAlpha" type="matrix" values="0 0 0 0 0 0 0 0 0 0 0 0 0 0 0 0 0 0 127 0" result="hardAlpha"/>
<feOffset dx="4.09513" dy="4.09513"/>
<feGaussianBlur stdDeviation="4.09513"/>
<feComposite in2="hardAlpha" operator="out"/>
<feColorMatrix type="matrix" values="0 0 0 0 0 0 0 0 0 0 0 0 0 0 0 0 0 0 0.25 0"/>
<feBlend mode="normal" in2="BackgroundImageFix" result="effect1_dropShadow_2_24"/>
<feBlend mode="normal" in="SourceGraphic" in2="effect1_dropShadow_2_24" result="shape"/>
</filter>
</defs>
</svg>
